# xmcd CD database file
# Copyright (C) 1993-1998 Ti Kan
#
# Track frame offsets:
#	150
#	16365
#	32282
#	48192
#	65037
#	84725
#	107312
#	117030
#	139652
#	153120
#
# Disc length: 2249 seconds
#
# Revision: 1
# Processed by: cddbd v1.4b41PL1 Copyright (c) Steve Scherf et al.
# Submitted via: CDValet v3.31 - Copyright (c) 1997 Greg Leichner
#
DISCID=6e08c70a
DTITLE=Chi-Lites - Greatest Hits
DYEAR=1900
DGENRE=
TTITLE0=Oh Girl
TTITLE1=I Like Your Lovin' (Do You Like Mine)
TTITLE2=Let Me Be The Man My Daddy Was
TTITLE3=(For God's Sake) Give More Power To The People
TTITLE4=The Coldest Days Of My Life (Part I)
TTITLE5=Have You Seen Her
TTITLE6=Twenty-Four Hours Of Sadness
TTITLE7=A Letter To Myself
TTITLE8=Stoned Out Of MY Mind
TTITLE9=Homely Girl
EXTD=1989 CBS Records\nA21069\n
EXTT0=
EXTT1=
EXTT2=
EXTT3=
EXTT4=
EXTT5=
EXTT6=
EXTT7=
EXTT8=
EXTT9=
PLAYORDER=
